<svg width="31" height="24" viewBox="0 0 31 24" fill="none" xmlns="http://www.w3.org/2000/svg">
<path d="M0.480469 4.44629V23.2957L30.4805 23.1526V4.44629H0.480469Z" fill="url(#paint0_linear)"/>
<path d="M25.6805 4.32817C25.6805 4.39346 25.6275 4.44639 25.5622 4.44639H18.5987C18.5334 4.44639 18.4805 4.39346 18.4805 4.32817V1.01123C18.4805 0.458945 18.9282 0.0112305 19.4805 0.0112305H24.6805C25.2328 0.0112305 25.6805 0.458946 25.6805 1.01123V4.32817Z" fill="#5084C1"/>
<path d="M11.282 4.32817C11.282 4.39346 11.2291 4.44639 11.1638 4.44639H4.20025C4.13496 4.44639 4.08203 4.39346 4.08203 4.32817V1.01123C4.08203 0.458945 4.52975 0.0112305 5.08203 0.0112305H10.282C10.8343 0.0112305 11.282 0.458946 11.282 1.01123V4.32817Z" fill="#5084C1"/>
<path opacity="0.5" d="M0.480469 4.44629H5.13469V23.2479H0.480469V4.44629Z" fill="#5084C1"/>
<defs>
<linearGradient id="paint0_linear" x1="30.4805" y1="13.871" x2="2.69299" y2="6.03005" gradientUnits="userSpaceOnUse">
<stop offset="0.0806838" stop-color="#568DCD"/>
<stop offset="1" stop-color="#A5CCF9"/>
</linearGradient>
</defs>
</svg>
