<svg width="343" height="246" fill="none" xmlns="http://www.w3.org/2000/svg"><path d="M39.932 332.418a208.407 208.407 0 0091.092-1.695l8.042-1.959c.956-.233.787-1.641-.197-1.641H24.808c-1.313 0-1.505 1.894-.219 2.157l15.343 3.138z" fill="url(#paint0_linear)"/><path d="M104.433 310.348c-11.287-4.855-22.574-1.789-34.919-1.533-12.697.255-25.395-.511-37.74.766-1.764.256-3.527.511-4.938 1.278-10.934 6.643 39.504 7.41 44.09 7.154 5.643-.255 40.209.256 37.387-4.599-.705-1.533-2.469-2.555-3.88-3.066z" fill="url(#paint1_linear)"/><path d="M330.061.646c50.043 0 94.245 25.226 120.772 63.757a148.06 148.06 0 0114.208 25.758 148.428 148.428 0 014.055 10.584c5.122 15.071 7.904 31.244 7.904 48.075 0 14.436-2.045 28.395-5.865 41.585a150.042 150.042 0 01-2.045 6.502 151.608 151.608 0 01-4.055 10.584 148.258 148.258 0 01-14.208 25.752c-26.527 38.525-70.723 63.751-120.766 63.751-81.153 0-146.94-66.34-146.94-148.174S248.908.646 330.061.646z" fill="url(#paint2_linear)"/><path d="M81.273 286.001c.304.185.519.369.598.535-.268-.528-.654-.97-1.084-1.397-2.383-4.171-4.542-8.443-6.42-12.813-.367-.888-.734-1.777-1.086-2.681.894-1.998 4.007-5.757 4.591-6.985 1.226-2.513 2.902-5.63 3.13-8.493.09-1.193-.22-4.62-1.992-4.746-2.012-.161-3.09 5.298-3.34 6.652-.54 2.991-.612 6.096-1.484 8.991-.402 1.321-.954 2.639-1.145 3.994a108.559 108.559 0 01-3.976-12.195c.82-1.955 4.035-5.847 4.634-7.089 1.226-2.514 2.901-5.631 3.13-8.494.09-1.193-.22-4.619-1.992-4.746-2.012-.161-3.09 5.299-3.34 6.653-.54 2.991-.613 6.096-1.485 8.99-.387 1.307-.954 2.61-1.13 3.95-1.113-4.369-1.943-8.777-2.413-13.208-.346-3.054-.498-6.119-.514-9.167 1.79-1.576 4.439-3.493 5.154-4.27 1.866-2.082 4.336-4.615 5.318-7.283.407-1.112 1.013-4.445-.695-5.033-1.935-.667-4.435 4.255-5.034 5.467-1.326 2.706-2.212 5.645-3.842 8.166-.29.442-.608.883-.911 1.34a87.537 87.537 0 011.028-12.241c.87-.535 1.633-1.236 2.457-1.846 2.044-1.556 4.492-2.536 6.737-3.864 1.004-.607 5.034-3.078 4.32-4.661-.634-1.387-3.463-.639-4.382-.21-2.222 1.03-4.218 3.304-5.854 5.033-.598.629-1.893 2.783-3.067 4.387.327-1.89.685-3.779 1.132-5.667a82.708 82.708 0 012.66-8.728c1.14-.529 2.077-1.435 3.092-2.206 2.044-1.556 4.492-2.536 6.722-3.849 1.004-.607 5.034-3.078 4.32-4.661-.634-1.387-3.463-.639-4.381-.21-2.223 1.03-4.219 3.304-5.854 5.032-.687.718-2.34 3.507-3.62 5.094a78.05 78.05 0 015.106-10.992c.93-.564 1.735-1.339 2.587-2.008 2.029-1.601 4.46-2.627 6.645-3.986.988-.621 4.971-3.168 4.213-4.737-.665-1.388-3.476-.565-4.38-.12-2.191 1.06-4.141 3.38-5.746 5.139-.204.235-.523.676-.869 1.207a66.683 66.683 0 00-3.71 5.031c-.06.029-.134.072-.178.086.059-.028.103-.043.163-.071a64.525 64.525 0 00-4.251 7.41c.049-1.03-.098-2.108-.124-3.154-.11-2.616.5-5.187.675-7.783.075-1.178.376-5.951-1.314-6.404-1.479-.389-2.46 2.309-2.645 3.321-.42 2.411.286 5.442.766 7.842.223 1.154 1.909 5.043 2.271 6.947a67.515 67.515 0 00-3.036 7.45c0-1.225-.392-2.487-.648-3.732-.499-2.594-.325-5.22-.54-7.853-.105-1.182-.57-5.986-2.283-6.171-1.517-.165-2.06 2.676-2.066 3.692-.043 2.463 1.124 5.37 1.976 7.703.42 1.173 2.962 5.184 3.41 6.911a93.914 93.914 0 00-.97 3.146c-1.255 4.38-2.072 8.874-2.527 13.465-.42-.651-.886-1.288-1.306-1.909-1.48-2.256-2.338-4.798-3.552-7.197-.551-1.072-2.848-5.421-4.484-4.947-1.429.418-.817 3.299-.418 4.278.927 2.319 3.127 4.62 4.793 6.506.678.761 3.32 2.742 4.887 4.238a82.786 82.786 0 00-.071 13.367c-.455-.801-.908-1.573-1.287-2.327-.917-1.901-1.774-3.83-2.498-5.802-1.141-3.085-1.955-6.284-2.216-9.515-.13-1.646-2.363-2.229-3.168-.842l-.086.177c-1.17 2.366-.123 5.27.989 7.773.842 1.914 5.327 12.282 8.519 13.468.578 5.12 1.619 10.205 3.062 15.194-1.389-2.195-2.244-4.647-3.426-6.957-.551-1.071-2.848-5.42-4.484-4.946-1.429.418-.802 3.314-.418 4.278.927 2.319 3.128 4.62 4.793 6.506.602.685 2.801 2.343 4.365 3.749a97.086 97.086 0 004.56 11.58c-.383-.351-.78-.688-1.164-1.039-1.98-1.849-3.46-4.134-5.22-6.172-.802-.913-4.087-4.61-5.534-3.744-1.254.766.056 3.437.677 4.286 1.475 2.047 4.156 3.775 6.23 5.192.853.585 3.883 1.872 5.738 2.956a107.73 107.73 0 004.556 8.398c-1.793-1.575-3.294-3.473-5-5.166-.86-.854-4.438-4.289-5.792-3.301-1.193.857.325 3.442 1.02 4.248 1.637 1.946 4.432 3.437 6.592 4.706.715.418 2.877 1.195 4.71 1.965 3.243 5.055 3.153 12.865 7.191 17.309-3.253-4.219-2.434-11.655-5.065-16.19z" fill="#fff"/><path d="M14.903 242.856c-3.508-5.298-7.016-12.417-3.341-17.633 2.756-3.891 8.435-4.636 12.945-2.98 3.759 1.407 6.348 4.056 9.354 6.54 2.84 2.401 5.012-.166 5.68-3.56.417-2.152.083-4.387-.501-6.457-1.42-5.05-4.26-9.603-6.515-14.404-2.171-4.802-3.842-10.183-2.672-15.316.918-3.973 4.426-7.947 8.518-7.367 2.255.331 4.093 1.821 5.68 3.477.584.579 1.252 1.241 2.088 1.407 8.519 1.656 5.178-32.865 4.927-37.584-.668-10.928-.5-22.6 5.095-32.038 3.09-5.132 8.602-9.685 14.616-8.692 5.178.828 8.936 5.547 10.272 10.514 1.337 4.967.669 10.265-.083 15.398-1.336 9.851-2.673 19.702-3.925 29.636-.334 2.815-.752 5.795.584 8.279 5.596 10.679 25.64-12.997 27.311 4.139.25 2.815-.585 5.546-1.587 8.113-2.339 6.209-5.512 12.086-8.018 18.295-2.255 5.547-5.261 13.494-3.758 19.537 1.17 4.802 7.015 5.961 11.275 5.712 4.343-.248 9.27-.828 12.361 2.153 3.006 2.897 2.422 7.285 1.169 10.844-1.587 4.305-4.677 6.458-8.018 9.521-7.851 7.119-15.534 14.487-23.051 22.02-1.837 1.904-3.758 3.974-4.176 6.54-1.086 7.12 6.347 3.725 10.022 5.05 3.257 1.159 5.93 4.553 4.928 7.864-.501 1.656-1.754 2.898-3.007 4.057-6.681 6.126-14.616 11.507-23.134 15.067-11.108 4.635-12.361-2.484-18.124-11.342-12.194-19.04-24.554-37.915-36.915-56.79z" fill="url(#paint3_linear)"/><path opacity=".38" d="M64.764 142.19c0-1.076-1.754-1.076-1.754 0-1.002 56.707-.752 113.497.835 170.205 0 1.076 1.754 1.076 1.754 0-1.587-56.708-1.837-113.415-.835-170.205z" fill="#fff"/><path d="M118.884 239.71c1.169-5.299.668-10.928-1.587-15.812-3.091-6.954-9.354-12.666-10.19-20.199-.584-5.05 1.504-10.017 3.258-14.819a113.739 113.739 0 006.681-38.412c0-7.699-2.171-17.136-9.772-18.957-7.35-1.739-13.864 5.629-16.035 12.831-5.596 18.296 3.007 39.571-5.93 56.542-3.34 6.291-8.853 11.424-11.024 18.212-3.425 10.597 2.171 22.6-1.504 33.114-2.171 6.457-7.684 11.59-8.853 18.295-.835 4.388.334 8.858 1.67 13.08 2.172 7.12 5.93 22.518 12.695 29.306 2.673.083 5.346.248 8.102.331 1.67.083 3.34.083 5.01.083a83.265 83.265 0 016.432-.249c5.763-3.394 10.774-8.609 13.279-12.748 6.014-9.934 7.016-22.269 4.761-33.694-.752-3.808-1.754-7.616-1.503-11.424.417-5.381 3.34-10.265 4.51-15.48z" fill="#544695"/><path opacity=".2" fill-rule="evenodd" clip-rule="evenodd" d="M100.635 156.14l.125-4.015c.083-1.076 1.754-1.076 1.754 0l-.125 4.003v.012l-.126 4.015c-.083 1.076-1.754 1.076-1.754 0l.126-4.015zm-7.768 84.894c2.193-24.09 4.385-48.18 6.557-72.271.083-1.159 1.837-1.159 1.754 0-2.172 24.09-4.364 48.18-6.556 72.27v.001c-2.193 24.09-4.385 48.18-6.557 72.271-.083 1.076-1.837 1.076-1.754 0 2.172-24.09 4.364-48.18 6.556-72.271zM76.372 277.46a14.167 14.167 0 003.675 4.635c.835.745-.418 1.987-1.253 1.242a15.345 15.345 0 01-3.925-5.05c-.501-.993 1.002-1.821 1.503-.827zm8.686-43.297a261.433 261.433 0 00-1.503-2.442c-.501-.807-1.002-1.614-1.503-2.442-.585-.91-2.088-.083-1.504.828.502.828 1.003 1.635 1.504 2.442.501.807 1.002 1.614 1.503 2.442.585.994 2.088.083 1.503-.828zm18.709-1.573a22.15 22.15 0 003.173-3.642c.585-.911 2.088-.083 1.587.91a20.035 20.035 0 01-3.507 3.974c-.836.745-2.088-.497-1.253-1.242zm-.835 45.781a28.747 28.747 0 01-4.51 4.47c-.835.745.334 1.904 1.252 1.242a28.654 28.654 0 004.51-4.471c.669-.828-.584-2.069-1.252-1.241zm-12.82-72.189c.313.435.627.869.96 1.325.669.91-.835 1.738-1.503.828-.334-.456-.647-.89-.96-1.325-.313-.434-.627-.869-.96-1.324-.669-.828.834-1.739 1.503-.828.334.455.647.889.96 1.323v.001zm18.666-31.127c-.46.456-.898.932-1.337 1.408-.438.476-.877.952-1.336 1.407-.752.828.501 2.07 1.253 1.242.459-.455.898-.931 1.336-1.407v-.001c.439-.476.877-.952 1.336-1.407.669-.911-.501-2.07-1.252-1.242zm-25.807 86.013c-.668-.91-1.336-1.842-2.005-2.773v-.001c-.668-.931-1.336-1.862-2.004-2.772-.668-.911-2.172 0-1.503.828.668.91 1.335 1.841 2.003 2.772l.001.001c.668.931 1.336 1.862 2.005 2.773.584.911 2.087.083 1.503-.828zm14.532-.165l3.925-3.891c.835-.828 2.004.414 1.253 1.242l-3.926 3.89c-.835.745-2.004-.496-1.252-1.241z" fill="#fff"/><path d="M63.093 294.927c-1.92-.662-4.009-.496-6.013-.414 1.587-1.076 3.34-2.152 4.343-3.808 1.002-1.655 1.253-3.973-.084-5.381-1.92-2.152-5.512-1.076-8.184.249a137.565 137.565 0 006.43-17.219c1.003-3.229 1.67-7.203-.835-9.521-2.255-2.152-7.266-1.738-9.103.745.584-4.304 1.42-8.609.334-12.997-1.086-4.305-4.427-8.278-8.77-8.775-4.593-.497-8.769 2.898-11.275 6.706-3.674 5.546-5.01 12.335-4.927 19.04.083 4.967.918 9.851 2.004 14.653.418 1.987 1.67 3.808-.417 4.553-1.587.579-5.095-.745-7.016-.497-2.672.414-5.429 1.987-6.347 4.553-1.42 3.808 1.503 7.699 4.26 10.597 5.01 5.298 10.857 12.086 17.789 15.398 2.088.165 4.092.331 6.18.496h10.523c5.68-2.069 10.69-6.043 13.614-11.258.501-.828.919-1.739.919-2.732.167-1.987-1.587-3.725-3.425-4.388z" fill="#B5ABDE"/><path opacity=".2" fill-rule="evenodd" clip-rule="evenodd" d="M41.044 248.733c-.083-1.076-1.837-1.076-1.753 0 .71 10.762 1.398 21.524 2.088 32.286v.001c.689 10.762 1.378 21.523 2.087 32.285.084 1.076 1.838 1.076 1.754 0-1.336-21.524-2.756-43.048-4.176-64.572zm-4.092 19.455a144.541 144.541 0 01-1.837-1.614 144.541 144.541 0 00-1.838-1.614c-.835-.745-2.004.496-1.169 1.159.626.538 1.232 1.076 1.837 1.614.606.538 1.212 1.076 1.838 1.614.752.745 1.92-.414 1.17-1.159zm-3.772 26.927c.605.538 1.211 1.076 1.837 1.614.752.745-.417 1.904-1.169 1.159a145.223 145.223 0 01-1.837-1.614c-.606-.538-1.211-1.076-1.838-1.614-.835-.663.334-1.904 1.17-1.159.626.538 1.231 1.076 1.837 1.614zm17.428-27.59v.001c-.48.662-.96 1.324-1.462 1.986-.668.828.835 1.739 1.42.828.5-.662.981-1.324 1.461-1.986v-.001c.48-.662.96-1.324 1.462-1.986.668-.911-.835-1.739-1.42-.828-.5.662-.981 1.324-1.461 1.986zm-.961 26.74a11.801 11.801 0 013.006-2.732c.836-.662 1.67.828.836 1.407-1.003.662-1.921 1.573-2.673 2.484-.668.828-1.838-.331-1.17-1.159z" fill="#fff"/><path d="M251.983 266.418c.133.083-3.982-10.082 6.649-25.649 10.652-16.305 42.941-27.181 43.029-39.049-.017-12.668-18.944-2.371-30.667-7.155-11.875-4.923-16.227-7.637-5.217-14.743 11.039-6.901 17.844-10.714 13.961-20.874-3.923-10.276 17.548-12.931 24.527-24.26 7.29-11.458-2.078-19.383-21.045-11.349-18.455 8.371-20.352 5.445-16.037.331 4.215-5.037 18.787-16.586 9.795-19.121-9.198-2.527-17.881 6.259-14.81-2.503 2.982-8.774 14.344-18.71 5.187-23.442-9.171-4.836-25.443 2.28-27.639 24.936-2.017 22.509-3.07 28.977-11.368 34.6-8.037 5.596-20.169-.999-29.534 7.316-9.226 8.417-3.126 18.277 6.016 22.843 9.316 4.527 25.708 14.299 21.394 23.215-4.045 8.844-15.434 2.526-25.496 4.511-11.179 2.202-19.596 16.051-4.151 26.969 15.739 10.558 35.842 15.898 48.927 49.358 2.102-2.044 4.275-4.005 6.479-5.934z" fill="url(#paint4_linear)"/><path opacity=".7" fill-rule="evenodd" clip-rule="evenodd" d="M246.196 252.894c.308-.085.542-.332.494-.588-18.391-98.969 13.005-148.952 13.332-149.451.16-.257.031-.537-.272-.642-.322-.097-.705.029-.871.272-.327.499-31.917 50.766-13.457 150.036.055.271.378.419.727.372 0 0 .027.008.047.001zm-9.017-81.396c.103-.017.178-.09.227-.189.077-.207-.048-.481-.274-.624-.142-.087-14.899-9.102-31.717-15.551-.229-.092-.448.028-.475.252-.02.239.153.498.382.59 16.504 6.324 30.987 15.119 31.53 15.448l.014.009a.505.505 0 00.313.065zm7.505-9.569c-.082.067-.162.093-.261.126a.8.8 0 01-.697-.17c-.255-.218-.277-.573-.013-.782 23.39-19.053 54.981-29.862 55.3-29.968a.699.699 0 01.886.309c.153.292.02.618-.318.73-.318.106-31.671 10.835-54.897 29.755zm2.377 61.547c.085-.023.17-.046.233-.116 12.987-11.121 39.204-19.47 40.837-19.99l.004-.001.074-.024c.281-.094.403-.371.273-.614a.62.62 0 00-.732-.305l-.075.024-.004.001c-1.642.522-28.073 8.932-41.183 20.189-.206.178-.197.489.028.689a.686.686 0 00.545.147zm-12.472 3.555c-.16.036-.352-.028-.489-.142-14.111-14.344-36.51-22.008-36.737-22.076-.254-.092-.424-.338-.358-.565.066-.227.317-.34.565-.262.227.069 22.874 7.811 37.175 22.346.191.192.194.46.011.614-.042.045-.111.067-.167.085z" fill="#B0AFFD"/><path d="M239.188 240.135c.274.333.445.629.468.852-.092-.715-.355-1.376-.675-2.037-1.034-5.75-1.771-11.53-2.145-17.313-.059-1.17-.118-2.341-.154-3.522 1.842-1.962 6.948-5.095 8.119-6.287 2.432-2.429 5.627-5.379 7.056-8.6.59-1.344 1.631-5.427-.352-6.263-2.244-.969-5.707 4.922-6.547 6.39-1.839 3.247-3.188 6.809-5.369 9.815-1 1.371-2.17 2.68-2.942 4.172a132.685 132.685 0 01.408-15.647c1.738-1.94 7.016-5.187 8.209-6.39 2.432-2.428 5.627-5.379 7.056-8.6.59-1.344 1.631-5.426-.351-6.262-2.245-.97-5.708 4.921-6.548 6.389-1.839 3.247-3.188 6.809-5.369 9.816-.977 1.359-2.159 2.644-2.908 4.125.504-5.485 1.349-10.904 2.616-16.209.848-3.666 1.923-7.268 3.147-10.797 2.697-1.125 6.52-2.309 7.657-2.929 2.992-1.68 6.859-3.647 9.075-6.349.92-1.127 2.975-4.744 1.254-6.089-1.949-1.525-6.826 3.192-8.008 4.36-2.625 2.612-4.84 5.664-7.74 7.943-.511.399-1.057.785-1.592 1.195a108.728 108.728 0 016.172-13.751c1.217-.279 2.378-.793 3.572-1.178 2.981-1.002 6.192-1.182 9.31-1.842 1.4-.31 7.033-1.597 6.859-3.705-.163-1.851-3.715-2.088-4.944-1.95-2.971.325-6.19 2.176-8.772 3.538-.944.495-3.309 2.48-5.31 3.877 1.146-2.057 2.327-4.103 3.61-6.111a103.392 103.392 0 016.611-9.053c1.526-.167 2.97-.851 4.45-1.346 2.981-1.003 6.191-1.182 9.286-1.832 1.4-.31 7.033-1.597 6.859-3.705-.162-1.851-3.714-2.088-4.944-1.949-2.97.324-6.189 2.175-8.771 3.537-1.081.562-4.117 3.142-6.232 4.478 3.17-3.816 6.614-7.417 10.343-10.719 1.297-.289 2.537-.871 3.789-1.313 2.981-1.061 6.191-1.299 9.252-2.019 1.388-.334 6.999-1.726 6.768-3.836-.197-1.863-3.76-2.006-4.978-1.844-2.948.371-6.133 2.293-8.692 3.702-.33.192-.876.578-1.49 1.057a82.655 82.655 0 00-6.311 4.371c-.08.01-.182.031-.239.03.08-.01.136-.009.216-.019a80.704 80.704 0 00-7.901 6.911c.476-1.171.747-2.475 1.144-3.694.94-3.068 2.689-5.803 3.948-8.735.567-1.333 2.858-6.734 1.103-7.916-1.539-1.025-3.766 1.712-4.39 2.809-1.464 2.624-1.891 6.404-2.319 9.365-.214 1.422.136 6.573-.225 8.916a84.36 84.36 0 00-6.523 7.43c.499-1.416.565-3.028.779-4.567.484-3.194 1.754-6.161 2.581-9.289.362-1.407 1.787-7.142-.104-8.023-1.675-.782-3.458 2.291-3.877 3.463-1.054 2.831-.9 6.646-.872 9.675.002 1.52 1.286 7.147 1.096 9.317a117.7 117.7 0 00-2.397 3.26c-3.226 4.575-5.996 9.452-8.39 14.582-.218-.916-.492-1.834-.721-2.716-.78-3.184-.728-6.457-1.143-9.704-.196-1.454-1.059-7.376-3.131-7.466-1.81-.072-2.283 3.496-2.224 4.783.119 3.043 1.707 6.56 2.85 9.389.468 1.144 2.694 4.464 3.881 6.803a102.734 102.734 0 00-5.531 15.425c-.195-1.103-.402-2.172-.528-3.192-.278-2.554-.475-5.119-.502-7.68-.052-4.011.317-8.026 1.336-11.863.52-1.953-1.805-3.498-3.294-2.207l-.17.172c-2.308 2.279-2.29 6.044-2.035 9.37.187 2.541 1.108 16.274 4.288 18.888-1.424 6.144-2.302 12.428-2.679 18.758-.7-3.078-.682-6.246-1.097-9.377-.196-1.453-1.059-7.376-3.131-7.465-1.81-.073-2.271 3.519-2.224 4.783.119 3.042 1.707 6.559 2.85 9.389.411 1.025 2.26 3.799 3.482 6.034a118.44 118.44 0 00.513 15.164c-.297-.556-.616-1.1-.913-1.656-1.519-2.908-2.287-6.127-3.475-9.168-.549-1.368-2.812-6.921-4.826-6.483-1.753.396-1.337 3.994-.971 5.218.858 2.94 3.231 5.982 5.034 8.428.741 1.009 3.694 3.677 5.382 5.653a130.72 130.72 0 001.806 11.484c-1.416-2.52-2.365-5.299-3.633-7.921-.64-1.322-3.346-6.686-5.303-6.072-1.719.526-1.03 4.106-.561 5.309 1.086 2.886 3.686 5.699 5.648 8.008.65.762 2.816 2.502 4.606 4.105 1.662 7.108-1.625 16.102 1.197 22.812-2.013-6.144 1.958-14.422.787-20.69z" fill="#fff"/><path d="M213.865 223.049c-4.198-4.142-6.799-9.716-6.799-15.613v-13.779l-10.927-2.948v18.138h-23.636c-10.017 0-18.138-8.121-18.138-18.138l-10.927 2.948v13.779c0 5.897-2.601 11.471-6.799 15.613-11.334 11.183-32.861 35.523-32.861 59.074v25.058c0 2.505 2.013 4.526 4.496 4.526h134c2.484 0 4.497-2.021 4.497-4.526v-25.058c-.033-23.552-21.569-47.891-32.906-59.074z" fill="url(#paint5_linear)"/><path fill-rule="evenodd" clip-rule="evenodd" d="M175.274 178.92c-89.103 0-96.237 24.862-95.993 33.6-5.16 0 0 5.548 0 9.406 30.203 16.814 48.494 1.739 49.01-5.769.206-2.988-2.879-6.305-1.198-8.784 10.194-15.031 48.136-15.031 48.136-15.031s41.518 0 49.362 17.205c.671 1.47-1.392 2.106-1.837 3.659-.052.184-.017.413.027.599 6.474 26.985 48.081 17.659 51.114-.065.025-.148.042-.328.01-.475-.355-1.643-2.636-2.143-2.912-3.802-1.729-10.395-15.456-30.543-95.719-30.543z" fill="url(#paint6_linear)"/><path d="M175.834 298.137c17.962 1.969 31.387-14.17 31.387-31.65 1.864-17.166-14.052-31.651-31.387-31.651-17.786-2.292-31.386 14.171-31.386 31.651s14.052 31.65 31.386 31.65z" fill="#fff"/><path d="M175.723 281.515c8.318 0 16.073-7.286 15.061-15.126-1.571-8.125-6.963-15.708-15.282-15.708-8.318 0-12.717 6.984-14.306 15.166 0 8.354 6.209 15.668 14.527 15.668z" fill="url(#paint7_linear)"/><path d="M152.227 270.432c2.161 0 5.442-1.726 5.442-3.905s-2.536-4.736-4.697-4.736-4.657 2.517-4.657 4.696c0 2.178 1.751 3.945 3.912 3.945z" fill="url(#paint8_linear)"/><path d="M201.645 275.963c.739-2.047-1.772-4.585-3.802-5.33-2.03-.746-2.811.584-3.55 2.632-.739 2.047.308 4.311 2.338 5.056 2.031.745 4.275-.311 5.014-2.358z" fill="url(#paint9_linear)"/><path d="M199.288 262.045c2.03-.746 3.077-3.009 2.338-5.057-.739-2.047-3.776-2.971-5.806-2.226-2.031.745-2.285 2.877-1.546 4.925.739 2.047 2.983 3.103 5.014 2.358z" fill="url(#paint10_linear)"/><path d="M160.295 284.798a3.969 3.969 0 00.483-5.558c-1.389-1.669-3.857-3.887-5.512-2.486-1.655 1.4-1.871 5.889-.482 7.558a3.889 3.889 0 005.511.486z" fill="url(#paint11_linear)"/><path d="M191.01 247.863c1.08-1.887.439-4.3-1.432-5.389a3.894 3.894 0 00-5.344 1.444c-1.08 1.886-1.871 4.766 0 5.856 1.872 1.089 5.696-.025 6.776-1.911z" fill="url(#paint12_linear)"/><path d="M176.484 291.264c.375-2.146-1.956-4.913-4.083-5.291-2.128-.379-4.157 1.054-4.532 3.2-.375 2.145 1.046 4.191 3.173 4.57 2.128.378 5.067-.333 5.442-2.479z" fill="url(#paint13_linear)"/><path d="M172.406 246.931c2.128-.378 4.678-2.493 4.303-4.639-.375-2.146-3.533-3.509-5.661-3.131-2.128.378-3.548 2.424-3.173 4.57.375 2.146 2.404 3.578 4.531 3.2z" fill="url(#paint14_linear)"/><path d="M190.606 290.774c1.871-1.09 2.512-3.502 1.432-5.389a3.895 3.895 0 00-5.344-1.444c-1.871 1.089-2.388 4.946-1.307 6.833 1.08 1.887 3.348 1.089 5.219 0z" fill="url(#paint15_linear)"/><path d="M160.759 253.75a3.969 3.969 0 00-.482-5.558c-1.655-1.4-5.087-2.155-6.476-.486-1.388 1.669-.691 4.643.964 6.044 1.655 1.4 4.605 1.669 5.994 0z" fill="url(#paint16_linear)"/><g filter="url(#filter0_d)"><path d="M431.844 126.34l-75.016-13.058c-4.895-.852-9.547 2.458-10.392 7.394l-8.452 49.373c-.845 4.936 2.438 9.627 7.332 10.479l75.017 13.059c4.894.852 9.547-2.459 10.392-7.394l8.451-49.374c.845-4.935-2.437-9.627-7.332-10.479z" fill="url(#paint17_linear)"/></g><path fill-rule="evenodd" clip-rule="evenodd" d="M348.385 117.98a.438.438 0 01.621.028l33.903 37.354a8.297 8.297 0 0010.086 1.744l44.437-23.907a.443.443 0 01.414.782l-44.437 23.906a9.17 9.17 0 01-11.148-1.926l-33.903-37.355a.446.446 0 01.027-.626z" fill="#3FC0AD"/><g filter="url(#filter1_d)"><path d="M407.947 172.047H233.931c-4.967 0-8.993 4.06-8.993 9.069v121.131c0 5.009 4.026 9.069 8.993 9.069h174.016c4.966 0 8.993-4.06 8.993-9.069V181.116c0-5.009-4.027-9.069-8.993-9.069z" fill="url(#paint18_linear)"/><path fill-rule="evenodd" clip-rule="evenodd" d="M226.145 176.505c.225-.3.647-.36.945-.134l88.421 67.19a8.265 8.265 0 0010.022-.006l88.178-67.183a.671.671 0 01.945.132c.224.3.165.727-.132.953l-88.178 67.183a9.603 9.603 0 01-11.646.008l-88.422-67.191a.684.684 0 01-.133-.952z" fill="#5084C1"/></g><g filter="url(#filter2_d)"><path d="M314.794 144.67l-38.294 7.115c-4.885.908-8.115 5.636-7.215 10.562l4.156 22.742c.9 4.925 5.589 8.182 10.473 7.275l38.295-7.116c4.884-.907 8.114-5.636 7.214-10.561l-4.155-22.742c-.9-4.925-5.589-8.183-10.474-7.275z" fill="url(#paint19_linear)"/></g><path fill-rule="evenodd" clip-rule="evenodd" d="M323.96 148.879c.19.162.213.448.052.639l-18.161 21.606a9.389 9.389 0 01-11.676 2.229l-24.229-13.141a.457.457 0 01-.183-.614.448.448 0 01.609-.185l24.229 13.141a8.494 8.494 0 0010.564-2.017l18.161-21.606a.447.447 0 01.634-.052z" fill="#FC7370"/><path d="M37.362 215.643c.657 1.49 4.105 3.366 5.2 3.918 1.422.828 3.119 1.766 4.268 2.428 0 .055.055.055.055.055-.548.11-2.244 3.201-2.244 3.201-2.955-.828-7.99-6.898-8.975-9.602-1.04-2.815.602-2.373 1.697 0z" fill="#9D695C"/><g filter="url(#filter3_d)"><path d="M50.257 191.111l-27.78 5.162a4.015 4.015 0 00-3.214 4.666l3.283 17.968a3.986 3.986 0 004.652 3.204l27.78-5.162a4.015 4.015 0 003.214-4.666l-3.283-17.967a3.986 3.986 0 00-4.652-3.205z" fill="url(#paint20_linear)"/></g><path d="M19.898 201.648l12.203 6.103a10 10 0 0011.974-2.331l9.827-11.146" stroke="#FFC20A" stroke-width="1.5" stroke-miterlimit="10" stroke-linecap="round"/><path d="M43.602 220.5c0-.552-3.667-3.367-2.463-4.029 1.15-.662 5.308 4.967 5.692 5.519-1.15-.663-3.23-1.49-3.23-1.49z" fill="#9D695C"/><path fill-rule="evenodd" clip-rule="evenodd" d="M91.488 325.513c7.825-1.821 4.05-78.085-5.144-83.438-2.555-1.503-13.446.492-13.989.602l-2.813-.602c-8.154 18.542-15.05 82.058-8.483 81.617 0 0 4.16 2.925 6.732-6.291 0 0 5.744-22.554 9.337-43.027 3.152 17.566 6.698 35.632 6.698 35.632 1.259 18.873 7.662 15.507 7.662 15.507z" fill="#4F586B"/><path d="M64.78 323.306s.656 6.402-.986 6.402c0 0-1.258-3.477-2.243-3.201 0 0-5.747 3.201-7.99 3.201 0 0 3.447-4.415 6.621-6.402h4.597zM87.983 324.3s-1.15 6.346.438 6.456c0 0 1.532-3.366 2.462-3.035 0 0 5.473 3.642 7.716 3.808 0 0-3.119-4.691-6.074-6.898l-4.542-.331z" fill="#3B455A"/><path d="M70.69 196.77c0 3.752 2.19 6.787 4.817 6.787 2.681 0 4.815-3.035 4.815-6.787 0-3.753-2.189-6.788-4.816-6.788-2.626 0-4.815 3.035-4.815 6.788z" fill="#9D695C"/><path d="M68.64 211.364c.875 2.318 6.045 6.1 6.92 6.1 2.299 0 5.528-4.525 7.334-7.34l-3.667-8.94-5.254.718s.11.552.22 1.379c0 .166.054.387.054.607.274 2.539-3.692 5.269-5.608 7.476z" fill="#9D695C"/><path d="M42.836 226.458s8.099 11.975 17.566 9.382c0 0 3.065-.663 5.472-1.987a7.115 7.115 0 001.423-.938s0 .276-.054.662c-.11 2.097-.383 8.443 1.313 9.161 0 0 11.492 4.525 19.646 1.214l.82-.332.055-.055c1.204-.717 15.159-9.602 12.259-16.389 0 0-14.776-18.763-18.497-17.107-3.721 1.655-5.343 3.481-7.696 3.481-.875 0-.516 1.327-2.428-.501-.54-.592-2.724-1.668-2.888-1.503-6.478-1.639-10.268 11.142-14.427 12.908-4.159 1.766-5.997-5.004-8.132-4.894-2.025.166-4.542 5.85-4.432 6.898z" fill="url(#paint21_linear)"/><path d="M73.81 193.459c-5.855 1.6-3.775-5.684 1.424-6.567 5.198-.883 7.442-.276 7.77 4.967.383 5.297 6.567 3.2 5.637 7.505-.93 4.359 6.403 3.586 7.169 11.202.82 7.615-.821 9.436-2.353 9.767-2.956.607-7.716-.938-8.592-4.359-2.9-10.761-7.224-10.982-6.95-16.39.492-8.608-1.97-6.677-4.104-6.125z" fill="#3B455A"/><path d="M74.192 203.281c0 .166.055.386.055.607 1.368-.221 2.299-.993 2.353-1.049-.766.332-1.696.442-2.407.442z" fill="#9D695C"/><path d="M67.297 232.914s0 .276-.055.663c.766-2.539 1.97-5.85 3.174-8.278 1.751-3.421-2.353 3.697-4.597 8.498.602-.276 1.095-.551 1.478-.883z" fill="#5084C1"/><path d="M84.317 237.219s-4.703-.585-4.867.132c0 0 .27 1.578 1.528 1.578.055 0-6.402 1.711-6.238 2.428.164.718.657 1.38 1.751 1.49.766.056 7.224 0 9.249-1.765l-1.423-3.863z" fill="#9D695C"/><path d="M82.893 235.509s.656 4.911 5.363 8.498l.82-.331.055-.055c-2.189-2.373-5.198-5.96-4.925-8.057 0 0 10.562-3.642 8.592-6.457l-3.557-3.863 2.845 5.022c-.054 0-8.591 3.753-9.193 5.243z" fill="#FC7370"/><path d="M161.044 89.205c7.131-4.35 11.274-11.787 11.76-19.584a24.734 24.734 0 00-.504-6.766 24.757 24.757 0 00-2.983-7.538 24.625 24.625 0 00-5.237-6.166 24.356 24.356 0 00-5.709-3.59c-7.073-3.184-15.528-2.938-22.659 1.412-11.565 7.054-15.269 22.227-8.274 33.889 6.995 11.661 22.041 15.397 33.606 8.343z" fill="url(#paint22_linear)"/><path d="M204.512 230.017s-.047 0-.047-.047v-.047h.094c-.047.047-.047.094-.047.094zm1.69.141c.093 0 .187 0 .281.047-.188.095-.188.095-.281-.047zm.563.142v-.095c.093 0 .187.048.328.048-.188.141-.281.094-.328.047zm.938.047h.235c.187.047.328.047.563.094-.235.094-.329.047-.798-.094zm2.44.33h-.141v-.048c.047 0 .094.001.141.048zm.61.047h-.094v-.047h.094v.047zM207.375 228.697c.046-.046.046-.046 0 0 .046-.046 0-.046 0-.046v.046c0-.046 0-.046 0 0zM206.812 229.687h.14c.235.142.47 0 .751.047v-.094a16.711 16.711 0 01-1.408-.188c.141.188.329.235.517.235zM205.826 232.985c.188.047.422.047.61.189.094.047.282.047.423.047.093 0 .14 0 .187-.142-.422-.094-.844-.188-1.22-.094zM208.595 228.839c-.235-.188-.47-.141-.704-.141.188.141.422.188.704.141zM196.911 195.012s0-.047 0 0c-.047-.047-.094-.047-.188-.047v.047h.188zM209.674 234.351h-.047l-.047.048c0-.048.047 0 .094-.048 0 .048 0 0 0 0zM210.284 233.362c.047 0 .094.047.141.047-.047-.047-.094-.094-.141-.047 0-.047 0-.047 0 0zM210.566 233.268c-.047.047-.094.094-.094.141 0-.047.047-.094.094-.141zM208.829 234.257v.095h.47v-.048c-.141 0-.282 0-.47-.047zM208.407 234.304c.047 0 .047.048.094.048s.094 0 .141-.048c-.047 0-.094-.047-.141-.047 0 .047-.047.047-.094.047zM205.31 229.499s.047 0 .094-.047c0-.047 0-.094-.047-.094h-.047c-.094.047-.141.047-.235.094.094 0 .188 0 .235.047z" fill="#FFC20A"/><path d="M163.328 215.321l-4.974 5.418 4.646 1.319 4.223-2.968-3.895-3.769z" fill="#EFBFA5"/><path d="M214.06 175.303s-57.067 36.955-53.172 42.326l4.927 4.193s51.107-28.051 54.908-34.741c3.754-6.643-6.663-11.778-6.663-11.778z" fill="#FC7370"/><path d="M163.14 222.011s.798 3.58-1.783 3.25c0 0-11.121-1.601-11.496-2.308 0 0-1.502-.989 8.493-2.214l4.786 1.272zM210.894 231.524s1.267 3.534-.798 3.77c0 0-8.728.895-9.15.282 0 0-1.314-.659 6.1-4.004l3.848-.048z" fill="#4F586B"/><path fill-rule="evenodd" clip-rule="evenodd" d="M213.672 175.407a27.957 27.957 0 01-.666-3.15l13.983-2.497c1.79 2.578 2.146 5.138 1.791 7.44 1.679 14.181-34.544 18.754-34.544 18.754 13.655 10.836 16.658 35.571 16.658 35.571l-4.505.329c-8.399-4.146-23.18-36.653-23.18-36.653-1.748-3.73-.24-6.56-.063-6.894.013-.024.019-.035.016-.032 1.374-3.317 17.819-9.902 30.51-12.868z" fill="#FC7370"/><path d="M218.449 147.381c-1.361 2.78-3.895 7.303-6.006 7.538-.798.095-1.971-1.696-3.003-3.721 1.079-1.555 1.126-4.005.891-6.172-.047-.377-.094-.754-.141-1.084-.046-.377-.14-.707-.187-1.036-.047-.142-.047-.283-.094-.424 0-.095-.047-.142-.047-.236-.047-.094-.047-.235-.094-.33-.188-.754-.328-1.225-.328-1.225l4.786-1.225 4.223 7.915z" fill="#EFBFA5"/><path d="M209.017 151.245c-11.261 8.009-15.344 18.986-25.386 20.729 0 0-1.83 3.487.704 5.23 6.053 4.193 26.184-13.003 26.184-13.003l-1.502-12.956z" fill="#544695"/><path d="M212.443 154.071c3.847.848 2.44-9.846 4.082-10.223 1.642-.377 9.666 2.591 8.681 11.448-.985 8.857 3.754 10.082 1.783 14.417-2.018 4.334-13.889 5.088-14.499 1.554-.61-3.533-7.039-13.709-2.487-22.425.844-1.649.187 4.758 2.44 5.229z" fill="#544695"/><path d="M206.343 135.32c-.282 3.44-1.502 6.69 3.566 6.879 2.487.094 4.833-2.167 5.349-5.607.47-3.439-1.126-6.501-3.566-6.878-2.487-.33-4.786-1.743-5.349 5.606z" fill="#EFBFA5"/><path d="M212.771 125.851c-6.522-.424-14.828 1.696-7.32 3.675 0 0-5.208 2.968 3.754 1.648.094 0 .235 0 .329-.047 8.774-1.413 2.111 5.089 3.941 4.288 1.83-.801 2.722 1.696.422 3.203-2.346 1.508-5.583-2.073-8.305.519 0 0-4.223 4.852 4.27 4.805 0 0 6.1 1.413 7.039-7.538-.047 0 4.223-9.988-4.13-10.553z" fill="#3B455A"/><path d="M158.151 179.324l21.585-8.386 19.708 9.187-13.138 10.836-28.155-11.637z" fill="#4F586B"/><path d="M157.541 179.324s-3.988-20.494-.75-19.458c0 0 21.772.895 28.482 8.763 0 0 3.144 16.49 1.502 22.426 0 .047-29.093-8.104-29.234-11.731z" fill="#3B455A"/><path d="M157.635 163.871c-.704 5.276-.563 16.065 7.837 18.609 8.399 2.544 17.455 5.183 18.159 5.324.704.188 2.956-2.591 0-3.204-2.956-.565-17.831-3.769-20.74-6.643-2.91-2.873-3.191-6.642-2.956-9.422.234-2.733-1.69-8.904-2.3-4.664zM171.384 163.871a.642.642 0 01-.657.659.643.643 0 01-.657-.659c0-.377.282-.66.657-.66.376 0 .657.283.657.66z" fill="#4F586B"/><path d="M199.632 178.711c-2.815-.659-3.003-3.533-5.678-2.026-2.674 1.461-5.631 10.224-2.721 7.774 2.909-2.45 3.519-3.722 4.551-3.863 1.033-.142 1.877 2.073 3.285 2.779 1.408.66.563-4.664.563-4.664z" fill="#EFBFA5"/><path d="M219.293 145.167c5.162.424 8.165 8.999 5.162 16.866-3.003 7.868-2.299 18.516-17.127 20.494-14.875 1.979-8.588 2.309-8.634-2.12-.094-4.428.14-3.392 7.414-4.758 7.273-1.366 7.883-8.763 7.789-14.275-.094-5.512 3.191-16.395 5.396-16.207z" fill="#544695"/><path d="M212.442 170.938c-.094 0 1.361-4.193 1.361-7.774-.047-8.009 2.346-13.663 2.487-13.615.094.047.375.376.282.471-2.065 3.769-2.206 8.951-2.3 13.144-.093 3.91-.187 6.973-1.689 7.774h-.141z" fill="#8167E3"/><path d="M219.669 177.204s1.736 2.544 4.833 2.544v1.696s-4.833-.094-6.006-4.24h1.173z" fill="#FC7370"/><path d="M390.704 328.27c-3.64-2.734-7.28-1.007-11.261-.863-4.095.144-8.19-.288-12.172.431-.568.144-1.137.288-1.592.72-3.526 3.741 12.74 4.173 14.219 4.029 1.82-.144 12.967.144 12.057-2.59a2.962 2.962 0 00-1.251-1.727z" fill="url(#paint23_linear)"/><path d="M390.827 318.514l.563-1.116c2.158-4.279 3.941-8.743 5.442-13.208.657-2.139 1.126-5.302-1.407-6.418-1.596-.651-3.66.465-4.88 1.395-1.877 1.396-3.472 3.256-4.786 5.209-.657.93-2.439 3.162-2.909 4.651.563-7.813 1.314-15.719 1.22-23.625-.094-4-.094-12.185-5.161-13.487-1.032-.279-2.252 0-3.19.465-4.035 1.953-4.223 6.418-4.692 10.324a58.607 58.607 0 000 14.045c-.751-2.418-1.971-4.651-3.566-6.511-.938-1.116-2.064-2.139-3.378-2.697-1.314-.558-3.003-.651-4.223.093-3.847 2.139-4.035 7.813-3.284 11.533 1.032 5.023 3.847 9.395 6.756 13.58 2.628 3.721 5.161 7.627 8.258 10.975 1.032 1.21 2.346 1.582 3.566 2.605.938.837 1.689 2.046 2.721 2.697 2.158-.093 4.223-.093 6.381-.093.657 0 3.378-4.65 3.753-5.302.845-1.674 1.877-3.348 2.816-5.115z" fill="#544695"/><path d="M367.179 323.258c1.22 1.209 4.411 4.092 7.226 5.859 2.252-.093 4.504-.093 6.662-.186 2.44-2.139 4.504-4.65 6.193-7.348.939-1.395 1.502-3.069 1.314-4.65-.469-2.977-3.66-4.186-6.006-2.418-.656.465-1.126 1.116-1.689 1.767-.187-.372-.187-.93-.187-1.395.094-5.488-.094-11.348-1.032-16.65-.47-2.79-1.971-8.743-6.1-7.255-1.22.466-2.064 1.489-2.721 2.512-1.595 2.697-2.158 5.953-2.065 9.115 0 3.162.563 6.325.751 9.394-.094-1.953-3.847-5.115-5.255-6.325-1.407-1.302-4.692-2.511-6.005-.279-.469.837-.282 1.954-.094 2.977 1.595 5.766 4.692 10.882 9.008 14.882z" fill="#B5ABDE"/><path opacity=".38" fill-rule="evenodd" clip-rule="evenodd" d="M376.281 328.559c.375 0 .844 0 1.22.093-.141-3.069-.44-6.139-.739-9.208-.1-1.023-.2-2.046-.293-3.069-.071-.873-.135-1.751-.199-2.633-.277-3.819-.558-7.692-1.397-11.319-.093-.372-.469-.279-.469.093-.224 4.231.208 8.641.631 12.944.107 1.088.213 2.17.308 3.24l.061.715c.262 3.029.529 6.127.877 9.144zm-6.287-10.51a73.316 73.316 0 01-.811-.575c-.634-.453-1.249-.892-1.91-1.286-.375-.279-1.032-.093-1.314.372-.281.465-.093 1.024.376 1.303.277.192.546.384.811.574.634.453 1.249.893 1.91 1.286.375.279 1.032.093 1.314-.372.187-.465 0-1.023-.376-1.302zm13.889.279c.469-.279 1.126 0 1.314.372.281.465.093 1.023-.376 1.302-.563.419-1.102.814-1.642 1.209-.539.396-1.079.791-1.642 1.209-.469.28-1.126 0-1.314-.372-.187-.465 0-1.023.376-1.302l3.284-2.418z" fill="#fff"/><defs><linearGradient id="paint0_linear" x1="79.923" y1="336.646" x2="79.923" y2="327.123" gradientUnits="userSpaceOnUse"><stop stop-color="#FDFEFE" stop-opacity=".42"/><stop offset="1" stop-color="#F1F6FD"/></linearGradient><linearGradient id="paint1_linear" x1="108.579" y1="302.545" x2="107.851" y2="319.786" gradientUnits="userSpaceOnUse"><stop stop-color="#E3E1ED"/><stop offset="1" stop-color="#E3E1ED" stop-opacity="0"/></linearGradient><linearGradient id="paint2_linear" x1="455.373" y1="217.452" x2="193.323" y2="80.495" gradientUnits="userSpaceOnUse"><stop stop-color="#B5ABDE"/><stop offset="1" stop-color="#E2DCFC" stop-opacity="0"/></linearGradient><linearGradient id="paint3_linear" x1="117.398" y1="312.447" x2="10" y2="312.447" gradientUnits="userSpaceOnUse"><stop stop-color="#7E6EE6"/><stop offset="1" stop-color="#3C9BE2"/></linearGradient><linearGradient id="paint4_linear" x1="316.361" y1="154.448" x2="182.662" y2="195.757" gradientUnits="userSpaceOnUse"><stop stop-color="#8167E3"/><stop offset="1" stop-color="#389ADF"/></linearGradient><linearGradient id="paint5_linear" x1="237.834" y1="297.792" x2="134.239" y2="197.795" gradientUnits="userSpaceOnUse"><stop stop-color="#FFC20A"/><stop offset="1" stop-color="#FFEFBE"/><stop offset="1" stop-color="#FFFAEC"/></linearGradient><linearGradient id="paint6_linear" x1="261.622" y1="224.763" x2="235.727" y2="144.346" gradientUnits="userSpaceOnUse"><stop stop-color="#FFC20A"/><stop offset="1" stop-color="#FFEFBE"/><stop offset="1" stop-color="#FFFAEC"/></linearGradient><linearGradient id="paint7_linear" x1="189.019" y1="277.969" x2="163.349" y2="257.789" gradientUnits="userSpaceOnUse"><stop stop-color="#FFC20A"/><stop offset="1" stop-color="#FFEFBE"/><stop offset="1" stop-color="#FFFAEC"/></linearGradient><linearGradient id="paint8_linear" x1="157.084" y1="269.438" x2="149.737" y2="262.942" gradientUnits="userSpaceOnUse"><stop stop-color="#FFC20A"/><stop offset="1" stop-color="#FFEFBE"/><stop offset="1" stop-color="#FFFAEC"/></linearGradient><linearGradient id="paint9_linear" x1="201.892" y1="272.627" x2="194.778" y2="276.975" gradientUnits="userSpaceOnUse"><stop stop-color="#FFC20A"/><stop offset="1" stop-color="#FFEFBE"/><stop offset="1" stop-color="#FFFAEC"/></linearGradient><linearGradient id="paint10_linear" x1="202.191" y1="259.995" x2="194.085" y2="257.272" gradientUnits="userSpaceOnUse"><stop stop-color="#FFC20A"/><stop offset="1" stop-color="#FFEFBE"/><stop offset="1" stop-color="#FFFAEC"/></linearGradient><linearGradient id="paint11_linear" x1="162.227" y1="281.749" x2="153.231" y2="282.628" gradientUnits="userSpaceOnUse"><stop stop-color="#FFC20A"/><stop offset="1" stop-color="#FFEFBE"/><stop offset="1" stop-color="#FFFAEC"/></linearGradient><linearGradient id="paint12_linear" x1="191.908" y1="244.481" x2="183.146" y2="247.132" gradientUnits="userSpaceOnUse"><stop stop-color="#FFC20A"/><stop offset="1" stop-color="#FFEFBE"/><stop offset="1" stop-color="#FFFAEC"/></linearGradient><linearGradient id="paint13_linear" x1="176.172" y1="287.144" x2="169.752" y2="293.324" gradientUnits="userSpaceOnUse"><stop stop-color="#FFC20A"/><stop offset="1" stop-color="#FFEFBE"/><stop offset="1" stop-color="#FFFAEC"/></linearGradient><linearGradient id="paint14_linear" x1="176.659" y1="245.254" x2="168.951" y2="240.28" gradientUnits="userSpaceOnUse"><stop stop-color="#FFC20A"/><stop offset="1" stop-color="#FFEFBE"/><stop offset="1" stop-color="#FFFAEC"/></linearGradient><linearGradient id="paint15_linear" x1="193.088" y1="288.281" x2="184.398" y2="286.551" gradientUnits="userSpaceOnUse"><stop stop-color="#FFC20A"/><stop offset="1" stop-color="#FFEFBE"/><stop offset="1" stop-color="#FFFAEC"/></linearGradient><linearGradient id="paint16_linear" x1="162.153" y1="250.418" x2="153.521" y2="252.77" gradientUnits="userSpaceOnUse"><stop stop-color="#FFC20A"/><stop offset="1" stop-color="#FFEFBE"/><stop offset="1" stop-color="#FFFAEC"/></linearGradient><linearGradient id="paint17_linear" x1="434.347" y1="165.032" x2="350.418" y2="128.593" gradientUnits="userSpaceOnUse"><stop offset=".057" stop-color="#3BB4A2"/><stop offset="1" stop-color="#72EBD9"/></linearGradient><linearGradient id="paint18_linear" x1="416.94" y1="241.682" x2="235.762" y2="197.397" gradientUnits="userSpaceOnUse"><stop offset=".081" stop-color="#568DCD"/><stop offset="1" stop-color="#A5CCF9"/></linearGradient><linearGradient id="paint19_linear" x1="327.346" y1="163.316" x2="272.315" y2="159.605" gradientUnits="userSpaceOnUse"><stop offset=".096" stop-color="#FC7370"/><stop offset="1" stop-color="#FAC5C4"/></linearGradient><linearGradient id="paint20_linear" x1="56.14" y1="213.661" x2="29.64" y2="192.973" gradientUnits="userSpaceOnUse"><stop stop-color="#FFC20A"/><stop offset="1" stop-color="#FFEFBE"/><stop offset="1" stop-color="#FFFAEC"/></linearGradient><linearGradient id="paint21_linear" x1="42.832" y1="227.564" x2="96.65" y2="211.028" gradientUnits="userSpaceOnUse"><stop offset=".096" stop-color="#FC7370"/><stop offset="1" stop-color="#FAC5C4"/></linearGradient><linearGradient id="paint22_linear" x1="175.688" y1="83.672" x2="125.438" y2="59.133" gradientUnits="userSpaceOnUse"><stop stop-color="#9DC8FF"/><stop offset="1" stop-color="#B3D0F2" stop-opacity=".02"/></linearGradient><linearGradient id="paint23_linear" x1="392.041" y1="323.876" x2="391.327" y2="333.55" gradientUnits="userSpaceOnUse"><stop stop-color="#E3E1ED"/><stop offset="1" stop-color="#E3E1ED" stop-opacity="0"/></linearGradient><filter id="filter0_d" x="318.851" y="102.148" width="131.458" height="110.572" filterUnits="userSpaceOnUse" color-interpolation-filters="sRGB"><feFlood flood-opacity="0" result="BackgroundImageFix"/><feColorMatrix in="SourceAlpha" values="0 0 0 0 0 0 0 0 0 0 0 0 0 0 0 0 0 0 127 0"/><feOffset dx="-4" dy="4"/><feGaussianBlur stdDeviation="7.5"/><feColorMatrix values="0 0 0 0 0.505883 0 0 0 0 0.403922 0 0 0 0 0.890196 0 0 0 0.2 0"/><feBlend in2="BackgroundImageFix" result="effect1_dropShadow"/><feBlend in="SourceGraphic" in2="effect1_dropShadow" result="shape"/></filter><filter id="filter1_d" x="205.938" y="161.047" width="222.002" height="169.269" filterUnits="userSpaceOnUse" color-interpolation-filters="sRGB"><feFlood flood-opacity="0" result="BackgroundImageFix"/><feColorMatrix in="SourceAlpha" values="0 0 0 0 0 0 0 0 0 0 0 0 0 0 0 0 0 0 127 0"/><feOffset dx="-4" dy="4"/><feGaussianBlur stdDeviation="7.5"/><feColorMatrix values="0 0 0 0 0.505883 0 0 0 0 0.403922 0 0 0 0 0.890196 0 0 0 0.2 0"/><feBlend in2="BackgroundImageFix" result="effect1_dropShadow"/><feBlend in="SourceGraphic" in2="effect1_dropShadow" result="shape"/></filter><filter id="filter2_d" x="250.135" y="133.518" width="90.439" height="77.997" filterUnits="userSpaceOnUse" color-interpolation-filters="sRGB"><feFlood flood-opacity="0" result="BackgroundImageFix"/><feColorMatrix in="SourceAlpha" values="0 0 0 0 0 0 0 0 0 0 0 0 0 0 0 0 0 0 127 0"/><feOffset dx="-4" dy="4"/><feGaussianBlur stdDeviation="7.5"/><feColorMatrix values="0 0 0 0 0.505883 0 0 0 0 0.403922 0 0 0 0 0.890196 0 0 0 0.2 0"/><feBlend in2="BackgroundImageFix" result="effect1_dropShadow"/><feBlend in="SourceGraphic" in2="effect1_dropShadow" result="shape"/></filter><filter id="filter3_d" x=".197" y="180.043" width="69.061" height="61.135" filterUnits="userSpaceOnUse" color-interpolation-filters="sRGB"><feFlood flood-opacity="0" result="BackgroundImageFix"/><feColorMatrix in="SourceAlpha" values="0 0 0 0 0 0 0 0 0 0 0 0 0 0 0 0 0 0 127 0"/><feOffset dx="-4" dy="4"/><feGaussianBlur stdDeviation="7.5"/><feColorMatrix values="0 0 0 0 0.505883 0 0 0 0 0.403922 0 0 0 0 0.890196 0 0 0 0.2 0"/><feBlend in2="BackgroundImageFix" result="effect1_dropShadow"/><feBlend in="SourceGraphic" in2="effect1_dropShadow" result="shape"/></filter></defs></svg>