<svg width="44" height="26" viewBox="0 0 44 26" fill="none" xmlns="http://www.w3.org/2000/svg">
<path d="M0.601562 5.62244H43.3475V25.9024H0.601562V5.62244Z" fill="url(#paint0_linear)"/>
<path d="M11.6582 5.48599C11.6582 5.56139 11.5971 5.62251 11.5217 5.62251H4.45195C4.37655 5.62251 4.31543 5.56139 4.31543 5.48599V1.55872C4.31543 1.00643 4.76315 0.558716 5.31543 0.558716H10.6582C11.2105 0.558716 11.6582 1.00643 11.6582 1.55872V5.48599Z" fill="#FC7370"/>
<path d="M25.6455 5.48599C25.6455 5.56139 25.5844 5.62251 25.509 5.62251H18.4393C18.3639 5.62251 18.3027 5.56139 18.3027 5.48599V1.55872C18.3027 1.00643 18.7504 0.558716 19.3027 0.558716H24.6455C25.1978 0.558716 25.6455 1.00643 25.6455 1.55872V5.48599Z" fill="#FC7370"/>
<path opacity="0.5" d="M0.601562 5.62244H5.25579V25.9024H0.601562V5.62244Z" fill="#FC7370"/>
<defs>
<linearGradient id="paint0_linear" x1="43.3475" y1="15.7624" x2="6.17055" y2="1.37362" gradientUnits="userSpaceOnUse">
<stop offset="0.0962187" stop-color="#FC7370"/>
<stop offset="1" stop-color="#FAC5C4"/>
</linearGradient>
</defs>
</svg>
