<svg width="35" height="21" viewBox="0 0 35 21" fill="none" xmlns="http://www.w3.org/2000/svg">
<path d="M0.478516 4.50024V20.897L34.7771 20.7726V4.50024H0.478516Z" fill="url(#paint0_linear)"/>
<path d="M31.799 4.39205C31.799 4.45186 31.7505 4.50035 31.6907 4.50035H26.0155C25.9557 4.50035 25.9072 4.45186 25.9072 4.39205V1.43726C25.9072 0.884971 26.3549 0.437256 26.9072 0.437256H30.799C31.3513 0.437256 31.799 0.884971 31.799 1.43726V4.39205Z" fill="#FFC20A"/>
<path d="M20.5719 4.39205C20.5719 4.45186 20.5234 4.50035 20.4636 4.50035H14.7885C14.7287 4.50035 14.6802 4.45186 14.6802 4.39205V1.43726C14.6802 0.884971 15.1279 0.437256 15.6802 0.437256H19.5719C20.1242 0.437256 20.5719 0.884971 20.5719 1.43726V4.39205Z" fill="#FFC20A"/>
<path d="M9.35097 4.39205C9.35097 4.45186 9.30248 4.50035 9.24267 4.50035H3.56753C3.50772 4.50035 3.45923 4.45186 3.45923 4.39205V1.43726C3.45923 0.884971 3.90694 0.437256 4.45923 0.437256H8.35097C8.90326 0.437256 9.35097 0.884971 9.35097 1.43726V4.39205Z" fill="#FFC20A"/>
<path opacity="0.5" d="M0.478516 4.50024H4.21298V20.8273H0.478516V4.50024Z" fill="#FFC20A"/>
<defs>
<linearGradient id="paint0_linear" x1="32.6334" y1="19.0114" x2="20.3856" y2="-1.91466" gradientUnits="userSpaceOnUse">
<stop stop-color="#FFC20A"/>
<stop offset="1" stop-color="#FFEFBE"/>
<stop offset="1" stop-color="#FFFAEC"/>
</linearGradient>
</defs>
</svg>
